<svg version="1.2" xmlns="http://www.w3.org/2000/svg" viewBox="0 0 1600 1200" width="1600" height="1200">
	<title>people-raising-money-svg</title>
	<style>
		.s0 { fill: #00d884;stroke: #2c2c2c } 
		.s1 { opacity: 0;fill: #2c2c2c;stroke: #ffffff } 
		.s2 { fill: #f5a84c;stroke: #2c2c2c } 
		.s3 { fill: none;stroke: #000000;stroke-linecap: round;stroke-linejoin: round } 
		.s4 { fill: #1acb88;stroke: #2c2c2c } 
		.s5 { fill: #eff9f1;stroke: #2c2c2c } 
		.s6 { opacity: 0;fill: #eff9f1;stroke: #ffffff } 
		.s7 { fill: #5876be;stroke: #2c2c2c } 
		.s8 { fill: #ede6d9;stroke: #2c2c2c } 
		.s9 { opacity: 0;fill: #5876be;stroke: #ffffff } 
		.s10 { opacity: 0;fill: #ffffff;stroke: #2c2c2c;stroke-linecap: round;stroke-linejoin: round } 
		.s11 { opacity: 0;fill: #1e8277;stroke: #ffffff } 
		.s12 { fill: #1e8277;stroke: #2c2c2c } 
		.s13 { fill: #2c2c2c;stroke: #2c2c2c } 
	</style>
	<g id="Layer">
		<path id="Layer" class="s0" d="m516.9 523.5v-97.1h47.3z"/>
		<path id="Layer" class="s1" d="m516.9 523.5v-97.1h41.2l6.1 3.7z"/>
		<path id="Layer" class="s0" d="m1192.4 682.3c0-141.9-115.2-255.9-255.9-255.9h-371.1-7.3l-13.3 37.6c-24.3 66.7-110.4 126.2-163.7 173.5v154c0 0 86.1 42.4 111.5 61.8 57 40.1 82.5 112.8 84.9 183.2h143.1l37.6-98.3h118.9l43.6 98.3h123.7l49.8-152.9c59.4-47.2 98.2-120 98.2-201.3z"/>
		<path id="Layer" class="s2" d="m913.5 481c1.2-43.6-31.6-78.8-75.2-81.2-43.7-1.2-78.9 31.5-81.3 75.1 0 2.5 0 3.7 0 6.1z"/>
		<path id="Layer" class="s3" d="m629.7 592.6v-18.2c0-58.2-26.7-112.8-71.6-148"/>
		<path id="Layer" class="s3" d="m717 481h236.5"/>
		<path id="Layer" class="s2" d="m834.6 341.6c43-0.1 77.6-34.7 77.6-77.7 0-42.8-34.6-77.6-77.6-77.6-42.8 0-77.6 34.8-77.6 77.6 0 43 34.8 77.6 77.6 77.6z"/>
		<path id="Layer" class="s2" d="m923.2 1036.5c70.3 0 127.3-57 127.3-127.4 0-70.3-57-127.3-127.3-127.3-70.4 0-127.4 57-127.4 127.3 0 70.4 57 127.4 127.4 127.4z"/>
		<path id="Layer" class="s3" d="m1182.7 610.8c32.7-9.7 52.1-49.8 52.1-87.3v-30.4"/>
		<path id="Layer" class="s3" d="m951 887.3c0-15.8-13.3-20.6-29-20.6-15.8 0-26.7 9.7-26.7 21.8 0 12.1 9.7 19.4 27.9 19.4 18.2 0 27.8 8.5 27.8 20.6 0 12.1-7.2 19.4-27.8 19.4-20.7 0-27.9-1.2-27.9-12.1"/>
		<path id="Layer" class="s3" d="m923.2 844.8v23.1"/>
		<path id="Layer" class="s3" d="m923.2 950.4v21.8"/>
	</g>
	<g id="Layer">
		<path id="Layer" class="s2" d="m1168.7 437.2c34.6 6.4 67.8-16.4 74.2-51 6.4-34.6-16.5-67.8-51-74.2-34.6-6.4-67.8 16.4-74.2 51-6.4 34.6 16.4 67.8 51 74.2z"/>
		<path id="Layer" class="s3" d="m1191.4 369.8c1.1-6.1-3.5-8.9-10.3-10.2-6.8-1.2-11.3 1.8-12.2 6.8-0.9 4.9 2.4 8 9.7 9.3 7.3 1.4 10.5 5.1 9.5 10.3-0.9 5-4.4 7-12.4 5.5-8-1.5-11-2.5-10.2-6.8"/>
		<path id="Layer" class="s3" d="m1183.4 351.1l-1.6 8.7"/>
		<path id="Layer" class="s3" d="m1175.9 391.6l-1.7 9.4"/>
	</g>
	<g id="Layer">
		<path id="Layer" class="s2" d="m628.4 353.2c57.9-26.6 83.3-95.1 56.7-152.9-26.6-57.9-95.1-83.3-153-56.7-57.9 26.6-83.3 95.1-56.7 153 26.6 57.8 95.1 83.2 153 56.6z"/>
		<path id="Layer" class="s3" d="m591.7 229.8c-4.7-10.3-14.4-9.6-25.8-4.4-11.4 5.3-14.9 14.5-11.1 22.7 3.8 8.3 11.9 9.4 24.2 3.8 12.2-5.7 20.8-3.4 24.8 5.2 3.8 8.3 0.7 15-12.7 21.2-13.4 6.1-18.9 7.7-22.1 0.6"/>
		<path id="Layer" class="s3" d="m560.4 210.3l6.7 14.6"/>
		<path id="Layer" class="s3" d="m591.5 278.1l7.2 15.7"/>
	</g>
	<g id="Layer">
		<path id="Layer" class="s4" d="m1136.3 583.7c0-0.1 0-0.1 0.2-0.1h22c0.1 0 0.1 0 0.1 0.1v39.5c0 0.1 0 0.1-0.1 0.1h-22c-0.2 0-0.2 0-0.2-0.1z"/>
		<path id="Layer" class="s3" d="m1169.3 605.5l9.2 9.1"/>
		<path id="Layer" class="s3" d="m1178.4 589.9l-8.8 8.6"/>
		<path id="Layer" class="s3" d="m1170.3 602.3h11.9"/>
		<path id="Layer" class="s5" d="m1330.8 867c-0.1 0.2-0.1 0.2-0.1 0.2v0.9c0 0.2 0 0.2-0.2 0.2-1.2 0.1-2.4 0.1-3.6 0.3-1.8 0.2-4 0.8-6.1 1.3h-0.1c0 0 0 0 0-0.2v-2.5-0.2c0 0 0 0-0.2 0h-39.2-0.1c0 0 0 0 0 0.2l9.4 135.3v0.1c0 0 0 0 0.1 0l26.3-3.5c0 0 0.2 0 0.2-0.1l3-112.9c0 0 0-0.1 0.1-0.1 3.5-0.7 7.2-1.5 10.9-2h0.1c0 0 0 0 0 0.2l4.3 116.2c0 0.1 0 0.1 0.2 0.1l24.6-0.3c0.2 0 0.2 0 0.2-0.1l8-133.1v-0.1c0 0 0 0-0.2 0h-37.6z"/>
		<path id="Layer" class="s5" d="m1217 634.8l-28.1 24.8-0.5-0.1-36.8-35.7c-0.3-0.3-0.6-0.8-0.8-1.4l-0.4-1.8c-0.4-1.2 0-2.5 0.8-3.6l6.8-8.1c1.7-2.3-1.1-5.1-3.3-3.4l6.5-5.4c3-2.4-0.5-7-3.7-4.9l1.8-1.3c3.3-2.4-0.3-7.5-3.7-5.1l-7.8 5.7 2.7-3.8c2.4-3.3-2.5-7-5.1-3.8-7 8.8-3.6 4.8-14.3 17.8-0.8 1-1.1 2.1-1.1 3.4l1.4 17.9c0.2 1.8 0.8 3.6 1.9 4.8 7.7 9.6 38.9 49 38.9 49 9.2 11.7 26.1 13.7 37.8 4.5l48.9-38.4z"/>
		<path id="Layer" class="s4" d="m1386.9 890.4v-234.8c0-29.6-24.1-53.6-53.7-53.6h-61.1c-11.6 0-22.9 4-32 11.3l-27.4 22.1v0.2l13.7 38.5c0 0 0 0.2 0.2 0.2h0.1l19.5-13.7h0.1c0 0 0.2 0.2 0 0.2l-5.2 39.9c-0.3 1.3-0.3 2.5-0.3 3.8 0 10.7 8.5 19.3 19.2 19.4 0.2 0 0.2 0 0.2 0.2v166.3 4.9c0 0.2 0 0.2 0.1 0.2 5.1 0 5.1 3.2 10.4 3.2 5.2 0 5.2-3.2 10.5-3.2 5.2 0 5.2 3.2 10.5 3.2 5.2 0 5.2-3.2 10.5-3.2 5.2 0 5.2 3.2 10.5 3.2 5.2 0 5.2-3.2 10.5-3.2 5.2 0 5.2 3.2 10.5 3.2 5.3 0 5.3-3.2 10.5-3.2 5.3 0 5.3 3.2 10.5 3.2 5.3 0 5.3-3.2 10.5-3.2 5.3 0 5.3 3.2 10.5 3.2 5.3 0 5.3-3.2 10.5-3.2z"/>
		<path id="Layer" class="s3" d="m1147.8 594.5l-12.7 10.5"/>
		<path id="Layer" class="s3" d="m1154.7 605.5l-11.7 9.1"/>
		<path id="Layer" class="s3" d="m1157.5 595.2l-18.1 13.3"/>
		<path id="Layer" class="s4" d="m1318.9 994.5c0 0 0.2 0 0 0 0.2 0 0.2 0.1 0.2 0.1l1.4 33.2c0 0 0 0.1-0.2 0.1l-10 5.7h-0.1c-17.6-14.1-34 8-53.5-4.1-1.8-1.1-1.8-3.5 0-4.6 2.4-1.4 5.7-2.7 6.8-2.7 3.4 0 8-1.3 11-2.4 8.9-3 14.5-8.8 15.1-9.4 0 0 0 0 0-0.2l-0.9-13c0-0.2 0-0.2 0.1-0.2z"/>
		<path id="Layer" class="s0" d="m1253.2 1027.1q0 0.3 0 0c8.1 6.4 15.6 7.2 22.7 6.2 0.2 0 0.2-0.1 0.2-0.1l-1.4-13.2v-0.2h-0.2c-3.3 1.1-6.8 1.8-10.5 1.8-2.4 0-4.8-0.5-7.2-1.3-1.4-0.5-3 0.3-3.1 1.9-0.2 1.7-0.4 3.6-0.5 4.9z"/>
		<path id="Layer" class="s3" d="m1319.5 1007.2l-21.8 21.5"/>
		<path id="Layer" class="s0" d="m1310.3 1035.5l-0.8-0.6c-8.4-6.8-16.7-4.8-25.4-2.5-9.6 2.4-19.3 5.9-30.8-3.1l-0.1-2.2c0 0 0.1-0.1 0.3-0.1h0.2c10 7.8 20 4.6 29.6 2.2 8.9-2.2 18.1-4.6 27.3 2.4l9.9-5.8 0.3 3.5z"/>
		<path id="Layer" class="s4" d="m1361.4 996.9c0.2 0 0.2 0.1 0.2 0.1l2.3 33.1c0 0 0 0.2-0.1 0.2l-10 5.7h-0.2c-18.5-14.8-35.5 10.2-56.5-6.2 0 0 0 0 0-0.1 0-1.3 0.5-2.7 0.6-4.3 0.2-1.5 1.6-2.3 3.1-1.9 2 0.6 4.3 0.9 6.3 1.1 3.4 0 8-1.3 11-2.4 8.9-3 14.6-8.9 15.1-9.4 0 0 0 0 0-0.2l1.6-13.2c0 0 0-0.1 0.2-0.1z"/>
		<path id="Layer" class="s0" d="m1296.6 1029.5q0 0.3 0 0c8.1 6.4 15.6 7.2 22.8 6.2 0.1 0 0.1-0.2 0.1-0.2l-1.4-13.2v-0.1h-0.1c-3.4 1.1-6.9 1.7-10.4 1.7-2.4 0-4.8-0.4-7.2-1.2-1.4-0.5-3 0.3-3.1 1.9-0.4 1.7-0.7 3.5-0.7 4.9z"/>
		<path id="Layer" class="s3" d="m1341.2 1031.1l21.3-20.8"/>
		<path id="Layer" class="s3" d="m1386.1 703.2c-5.3 0-4.6-3.1-9.9-3.1-5.2 0-5.2 3.1-10.5 3.1-5.3 0-5.3-3.1-10.5-3.1-5.3 0-5.3 3.1-10.5 3.1-5.3 0-5.3-3.1-10.5-3.1-5.3 0-5.3 3.1-10.5 3.1-5.3 0-5.3-3.1-10.5-3.1-5.3 0-5.3 3.1-10.5 3.1-5.3 0-5.3-3.1-10.5-3.1-5.3 0-5.3 3.1-10.5 3.1-5.3 0-5.3-3.1-10.5-3.1"/>
		<path id="Layer" class="s3" d="m1260 723.9c5.4 0 10.5-2.2 14-5.9l9.3-10.6"/>
		<path id="Layer" class="s6" d="m1260 723.9c5.4 0 10.5-2.2 14-5.9l8.9-10.3h0.2l0.1 0.2c-1.5 17-10.9 24.1-22.9 26.4h-0.1c0 0 0 0 0-0.2z"/>
		<path id="Layer" class="s5" d="m1301.1 659.6c0 0-60.3 32.8-97.7 62.3l-27.4 11.3c-1.1 0.4-2.1 1.4-2.6 2.5l-4.7 11.6c-0.2 0.5-0.4 0.8-0.4 1.3 0 2.9 0 9.9 0 14.3 0 3.1 4.5 3.4 4.7 0.8 1.6 2.4 4.6 0.3 4.9-3.2 0.6 2.1 3.2 2.1 4.1-1.2l2.7-10.2c0.4-1 0.8-1.9 1.8-2.4l4.4-3c12.5 2.5 21.9-9.6 21.9-9.6 43.6-20.4 101.2-39.1 101.2-39.1z"/>
		<path id="Layer" class="s3" d="m1184.3 737.6l-5.5 9.6-0.9 13.3"/>
		<path id="Layer" class="s3" d="m1173 763.7l1.1-17 4.4-10"/>
		<path id="Layer" class="s3" d="m1190.8 743.7l5.1-3.1"/>
		<path id="Layer" class="s3" d="m1386.1 887.1c-5.3 0-4.5 3.1-9.7 3.1-5.3 0-5.3-3.1-10.5-3.1-5.3 0-5.3 3.1-10.6 3.1-5.2 0-5.2-3.1-10.5-3.1-5.2 0-5.2 3.1-10.5 3.1-5.2 0-5.2-3.1-10.5-3.1-5.2 0-5.2 3.1-10.5 3.1-5.2 0-5.2-3.1-10.5-3.1-5.2 0-5.2 3.1-10.5 3.1-5.2 0-5.2-3.1-10.5-3.1-5.2 0-5.2 3.1-10.5 3.1-5.2 0-5.1-3.1-10.3-3.1"/>
		<path id="Layer" class="s3" d="m1386.1 874.6c-5.3 0-4.5 3.2-9.7 3.2-5.3 0-5.3-3.2-10.5-3.2-5.3 0-5.3 3.2-10.6 3.2-5.2 0-5.2-3.2-10.5-3.2-5.2 0-5.2 3.2-10.5 3.2-5.2 0-5.2-3.2-10.5-3.2-5.2 0-5.2 3.2-10.5 3.2-5.2 0-5.2-3.2-10.5-3.2-5.2 0-5.2 3.2-10.5 3.2-5.2 0-5.2-3.2-10.5-3.2-5.2 0-5.2 3.2-10.5 3.2-5.2 0-5.1-3.2-10.3-3.2"/>
		<path id="Layer" class="s3" d="m1386.1 820.5c-5.3 0-4.5 3.2-9.7 3.2-5.3 0-5.3-3.2-10.5-3.2-5.3 0-5.3 3.2-10.6 3.2-5.2 0-5.2-3.2-10.5-3.2-5.2 0-5.2 3.2-10.5 3.2-5.2 0-5.2-3.2-10.5-3.2-5.2 0-5.2 3.2-10.5 3.2-5.2 0-5.2-3.2-10.5-3.2-5.2 0-5.2 3.2-10.5 3.2-5.2 0-5.2-3.2-10.5-3.2-5.2 0-5.2 3.2-10.5 3.2-5.2 0-5.1-3.2-10.3-3.2"/>
		<path id="Layer" class="s3" d="m1386.1 766.4c-5.3 0-4.5 3.2-9.7 3.2-5.3 0-5.3-3.2-10.5-3.2-5.3 0-5.3 3.2-10.6 3.2-5.2 0-5.2-3.2-10.5-3.2-5.2 0-5.2 3.2-10.5 3.2-5.2 0-5.2-3.2-10.5-3.2-5.2 0-5.2 3.2-10.5 3.2-5.2 0-5.2-3.2-10.5-3.2-5.2 0-5.2 3.2-10.5 3.2-5.2 0-5.2-3.2-10.5-3.2-5.2 0-5.2 3.2-10.5 3.2-5.2 0-5.1-3.2-10.3-3.2"/>
		<path id="Layer" class="s3" d="m1386.1 754c-5.3 0-4.5 3.2-9.7 3.2-5.3 0-5.3-3.2-10.5-3.2-5.3 0-5.3 3.2-10.6 3.2-5.2 0-5.2-3.2-10.5-3.2-5.2 0-5.2 3.2-10.5 3.2-5.2 0-5.2-3.2-10.5-3.2-5.2 0-5.2 3.2-10.5 3.2-5.2 0-5.2-3.2-10.5-3.2-5.2 0-5.2 3.2-10.5 3.2-5.2 0-5.2-3.2-10.5-3.2-5.2 0-5.2 3.2-10.5 3.2-5.2 0-5.1-3.2-10.3-3.2"/>
		<path id="Layer" class="s3" d="m1385.3 646.3c-4.5 0.3-4.2 3.2-9.1 3.2-5.2 0-5.2-3.2-10.5-3.2-5.3 0-5.3 3.2-10.5 3.2-5.3 0-5.3-3.2-10.5-3.2-5.3 0-5.3 3.2-10.5 3.2-5.3 0-5.3-3.2-10.5-3.2-5.3 0-5.3 3.2-10.5 3.2-5.3 0-5.3-3.2-10.5-3.2-5.3 0-5.3 3.2-10.5 3.2-5.3 0-5.3-3.2-10.5-3.2-5.3 0-5.3 3.2-10.5 3.2-5.3 0-5.3-3.2-10.5-3.2-5.3 0-5.3 3.2-10.5 3.2-5.3 0-5.3-3.2-10.5-3.2-5.3 0-5.3 3.2-10.6 3.2-5.2 0-5.2-3.2-10.5-3.2-0.4 0-0.9 0-1.2 0.1"/>
		<path id="Layer" class="s3" d="m1381.9 635.1c-1.7 1-2.4 1.9-5.7 1.9-5.3 0-5.3-3.1-10.5-3.1-5.3 0-5.3 3.1-10.5 3.1-5.3 0-5.3-3.1-10.5-3.1-5.3 0-5.3 3.1-10.5 3.1-5.3 0-5.3-3.1-10.5-3.1-5.3 0-5.3 3.1-10.5 3.1-5.3 0-5.3-3.1-10.5-3.1-5.3 0-5.3 3.1-10.5 3.1-5.3 0-5.3-3.1-10.5-3.1-5.3 0-5.3 3.1-10.5 3.1-5.3 0-5.3-3.1-10.6-3.1-5.2 0-5.2 3.1-10.4 3.1-5.3 0-5.3-3.1-10.6-3.1-5.2 0-5.2 3.1-10.5 3.1-5.2 0-5.2-3.1-10.5-3.1-1.6 0-2.7 0.3-3.6 0.6"/>
		<path id="Layer" class="s0" d="m1353.8 1037.9l-1-0.6c-8.4-6.8-16.7-4.8-25.5-2.5-9.3 2.4-19.4 5.7-30.7-3.2v-0.2-2.2c0 0 0.2-0.3 0.3-0.3h0.2c10.2 7.8 20.1 5.1 29.6 2.7 8.9-2.3 18-4.5 27.4 2.4h0.1l9.6-5.6h0.2c0 0 0.1 0 0.1 0.1l0.3 3.2v0.2z"/>
		<path id="Layer" class="s3" d="m1301.1 659.6l9.1-4.7"/>
		<path id="Layer" class="s3" d="m1314 695l33.5-11.6"/>
		<path id="Layer" class="s5" d="m1323 558.7l-0.1-1.4c0-4.8-1.8-9.1-4.6-12.3-3.5-3.9-8.6-6.5-14.2-6.5-10.3 0-18.8 8.5-18.8 18.8v8.6c0 0.1 0 0.1-0.1 0.1h-6.7c-1.8 0-3 1.5-3 3.1 0 1.7 1.4 3 3 3h6.8c0.2 0 0.2 0 0.2 0.2 0.3 5.4 2.8 10 6.7 13.2v5.1 14.3c0 9.2 29.6 8.7 29.6 0.3 0-1.3 0-21.8 0-27.9 0.6-1.9 1.1-3.9 1.1-6.2v-1.1c0-0.1 0-0.1 0.1-0.1 1.5-0.2 2.6-1 3.4-2.1 0.6-1 1.1-2.2 1.1-3.5 0.2-3-0.8-6.5-4.5-5.6z"/>
		<path id="Layer" class="s7" d="m1341.2 526.4c-10.7 0-19.8 7.3-22.5 17.2 0 0 0 0.2-0.1 0.2h-0.2c-2.8-3.2-7.1-5.8-13.3-5.8-17.7 0-19.6 12.6-19.6 19 0 0 0 0.1 0.1 0.1 0.2 0 0.2 0 0.2 0 4.8-3.8 7.5-8.4 8-9.5l0.1-0.2c0 0 0.2 0 0.2 0.2 4.9 10.7 21.3 11.9 23.1 11.9 0 0 0.1 0 0.1 0.2l0.8 5.6c0 0 0 0.1 0.2 0.1h1.9c0 0 0.1 0 0.1-0.1 0 0 1.2-5.6 1.3-5.9 0.2-0.4 0.5-0.5 1-0.7 0.4 0 1.4 0.3 1.4 0.3 2.7 1 3.2 2.6 3.2 5.5 0 1.2-0.2 2.5-0.8 3.5l0.3 0.3c4 3.2 9.2 4.9 14.6 4.9 12.9 0 23.3-10.5 23.3-23.2 0-12.8-10.7-23.6-23.4-23.6z"/>
		<path id="Layer" class="s3" d="m1292.2 602v3c0 8.5 7 14 13.6 14 11.8 0 16-6.2 16-13.8v-3.3"/>
		<path id="Layer" class="s5" d="m1306.8 617.9l4.3 4.2v0.1l-4.1 4.2h-0.2l-4.1-4.2v-0.1z"/>
		<path id="Layer" class="s8" d="m1300.4 567c0.8 0 1.5-0.6 1.5-1.4 0-0.8-0.7-1.5-1.5-1.5-0.8 0-1.4 0.7-1.4 1.5 0 0.8 0.6 1.4 1.4 1.4z"/>
		<path id="Layer" class="s5" d="m1299.7 576.2c-0.9-4.9-11.5-3.5-11.5 0 0 3.8 12.1 3.8 11.5 0z"/>
		<path id="Layer" class="s9" d="m1306.5 560.5c0 0.1 0 0.1-0.2 0.1h-9.5c-0.2 0-0.2 0-0.2-0.1v-3.5c0-0.2 0-0.2 0.2-0.2h9.5c0.2 0 0.2 0 0.2 0.2z"/>
		<path id="Layer" class="s9" d="m1290.7 560.5c0 0.1 0 0.1-0.1 0.1h-9.6c-0.1 0-0.1 0-0.1-0.1v-3.5c0-0.2 0-0.2 0.1-0.2h9.6c0.1 0 0.1 0 0.1 0.2z"/>
		<path id="Layer" class="s10" d="m1299.5 575.9c-4.8 1.3-7.7 1.3-11.3 0"/>
		<path id="Layer" class="s8" d="m1287.9 565.6c0-0.8-0.7-1.5-1.5-1.5-0.8 0-1.4 0.7-1.4 1.5q0 0.2 0 0.4l0.2 0.2h2.3c0 0 0.2 0 0.2-0.2 0.2-0.1 0.2-0.3 0.2-0.4z"/>
		<path id="Layer" class="s3" d="m1301.2 571.3c2.9 0 5.3-2.8 5.3-6.4 0-3.5-2.4-6.3-5.3-6.3-2.9 0-5.2 2.8-5.2 6.3 0 3.6 2.3 6.4 5.2 6.4z"/>
		<path id="Layer" class="s3" d="m1296 566h-5.6l0.2-1.1c0-3.5-2.4-6.3-5.3-6.3-2.8 0-5.2 2.8-5.2 6.3v0.7"/>
		<path id="Layer" class="s3" d="m1298.7 723.9c5.4 0 10.3-2.4 13.8-6l9.3-10.7"/>
		<path id="Layer" class="s6" d="m1298.7 724.6c0-0.4 0.3-0.7 0.6-0.7 5.3-0.1 9.9-2.4 13.4-5.9l8.8-10c0.1-0.1 0.4 0 0.4 0.2-1.6 16.7-11 23.8-22.7 26.1-0.2 0-0.4-0.2-0.4-0.2v-9.5z"/>
		<path id="Layer" class="s6" d="m1292.2 589.9c0 0 0.1 0.2 0 0 0.1 0.2 0.3 0.2 0.3 0.2l4.6-1.8c0 0 0.2 0 0.2-0.1 0-0.2-0.2-0.2-0.2-0.2-1.8-0.6-3.2-1.6-4.6-2.7 0 0 0 0-0.2 0-0.1 0-0.1 0.2-0.1 0.2z"/>
	</g>
	<g id="Layer">
		<path id="Layer" class="s4" d="m463.7 574c0-0.1 0-0.1-0.2-0.1h-22.2c-0.2 0-0.2 0-0.2 0.1v40c0 0.1 0 0.1 0.2 0.1h22.2c0.2 0 0.2 0 0.2-0.1z"/>
		<path id="Layer" class="s5" d="m383.6 628.3l28.4 25 0.5-0.2 37.2-36.1c0.3-0.3 0.6-0.8 0.8-1.4l0.5-1.8c0.3-1.3 0-2.6-0.9-3.7l-6.9-8.2c-1.7-2.3 1.2-5.2 3.4-3.4l-6.6-5.5c-3.1-2.4 0.5-7.1 3.7-5l-1.8-1.2c-3.3-2.5 0.4-7.6 3.7-5.2l7.9 5.8-2.7-3.9c-2.4-3.3 2.6-7.1 5.1-3.8 7.1 8.8 3.7 4.8 14.5 18 0.8 1 1.2 2.1 1.2 3.4l-1.5 18.2c-0.1 1.7-0.8 3.5-1.9 4.8-7.7 9.7-39.3 49.6-39.3 49.6-9.3 11.8-26.4 13.8-38.3 4.5l-49.5-38.8z"/>
		<path id="Layer" class="s3" d="m453.5 587.4l12.9 10.8"/>
		<path id="Layer" class="s3" d="m446.6 598.5l11.8 9.3"/>
		<path id="Layer" class="s3" d="m443.9 588.2l18.2 13.5"/>
		<path id="Layer" class="s5" d="m237.8 826.5c9.8-24.2 47.2-17.1 67.3-6.8 0 0 0 0 0.1 0 12.3-5.8 26.9 8.7 26.9 43.5l-9.5 137.2c0 0 0 0 0 0.1 0 0.2 0 0-0.1 0l-26.6-3.5c0 0-0.2 0-0.2-0.2l-6.7-133.6c0-13.2 2.1-23.3 5.3-30.7v-0.2c-6-2.8-12.4-4.5-19.2-5.3-3.7-0.3-9-1-13.5-0.2 0 0-0.2 0-0.2 0.2v0.1c6 6.6 10.2 18.7 10.2 36.1l-8.2 135.1c0 0 0 0.2-0.2 0.2l-25.1-0.4c0 0-0.2 0-0.2-0.1l-11.2-134.8c0.3-18 5-30.3 11.1-36.7z"/>
		<path id="Layer" class="s4" d="m292.8 1028.2q0 0.3 0 0l10.2 6h0.1c18.7-15.1 36 10.3 57.2-6.3 0 0 0 0 0-0.1 0-1.3-0.5-2.8-0.6-4.4-0.2-1.4-1.7-2.2-3.1-1.9-11.3 3.7-25-3.2-32.8-10.8 0 0 0 0 0-0.2l-0.9-15.9c0 0 0-0.2-0.1-0.2h-27.5c0 0-0.2 0-0.2 0.2z"/>
		<path id="Layer" class="s3" d="m346.3 1022.3l-16.7 6.6"/>
		<path id="Layer" class="s4" d="m237.6 994.6q-0.2 0 0 0-0.2 0 0 0l-2.6 33.8v0.2l10.2 5.8h0.2c18.6-15.2 35.9 10.3 57.1-6.3 0 0 0 0 0-0.2 0-1.3-0.5-2.7-0.6-4.3-0.2-1.5-1.6-2.3-3.1-2-11.3 3.7-24.9-3.2-32.8-10.7l-1.6-13.4c0 0 0-0.2-0.2-0.2z"/>
		<path id="Layer" class="s4" d="m340 736c0 0 0 0.2 0 0l11.3 134.6c0 0 0 0 0 0.2 0 0 0 0-0.2 0h-67c0 0-0.1 0-0.1-0.2l-2.4-26.7c0-0.2-0.4-0.2-0.4 0l-2.7 26.7c0 0 0 0.2-0.1 0.2h-75.2c0 0 0 0-0.2 0 0 0 0 0 0-0.2l8.9-134.4c0 0 0-0.2 0.1-0.2l80.7-14.6z"/>
		<path id="Layer" class="s4" d="m340.3 645.4q-0.2 0 0 0c-0.1 0-0.1 0-0.1 0.1v90.5c0 0 0 0 0 0.2 0 0 0 0-0.2 0h-128c0 0-0.1 0-0.1-0.2v-86.5c0-29.9 24.3-54.2 54.2-54.2h61.7c11.7 0 23.2 4 32.3 11.4l27.7 22.9v0.1l-13.8 38.5c0 0 0 0-0.2 0z"/>
		<path id="Layer" class="s3" d="m212.7 722.5h126.8"/>
		<path id="Layer" class="s3" d="m264.5 736v-139.9"/>
		<path id="Layer" class="s3" d="m285.3 736v-139"/>
		<path id="Layer" class="s3" d="m243.7 736v-134.9"/>
		<path id="Layer" class="s3" d="m223 736v-118"/>
		<path id="Layer" class="s3" d="m306.1 736l-0.1-139"/>
		<path id="Layer" class="s3" d="m327 736v-139.9"/>
		<path id="Layer" class="s3" d="m347.8 649.4l-0.1-49.3"/>
		<path id="Layer" class="s3" d="m368.5 663.5v-48.7"/>
		<path id="Layer" class="s3" d="m212.7 703.8h127.3"/>
		<path id="Layer" class="s3" d="m212.7 685.3h63.7"/>
		<path id="Layer" class="s3" d="m212.7 666.8h126.7"/>
		<path id="Layer" class="s3" d="m346 648.3h34.3"/>
		<path id="Layer" class="s3" d="m212.7 648.3h126.7"/>
		<path id="Layer" class="s3" d="m216.4 629.7l170.5 0.2"/>
		<path id="Layer" class="s3" d="m228.9 611.2h135.4"/>
		<path id="Layer" class="s6" d="m250.8 674v-0.1h0.2l34.6 15.2 46 13.3c0 0 0 0 0.2 0 0 0 0 0 0-0.2l3.7-59.6v-0.1h0.2l4.5 3c0 0 0 0.3 0 0.5l-0.2 58.9 0.2 31.4h-0.2l1.6 18.7 9.7 115.8c0 0 0 0 0 0.1 0 0 0 0-0.2 0h-19.5c0 0-0.1 0-0.1-0.1l-0.7-41.9c-0.8-53.8-23.9-104.8-64.2-140.5z"/>
		<path id="Layer" class="s3" d="m288.3 1022.3l-16.7 6.6"/>
		<path id="Layer" class="s3" d="m281.6 843.7v-107.7"/>
		<path id="Layer" class="s3" d="m285.6 689.1l-35.4-15.7"/>
		<path id="Layer" class="s3" d="m298.5 653.4l-42.5-29.6"/>
		<path id="Layer" class="s5" d="m276.6 551.3l0.1-1.4c0-4.8 1.8-9.2 4.7-12.4 3.6-4 8.7-6.6 14.3-6.6 10.5 0 19 8.5 19 19v8.7c0 0.1 0 0.1 0.2 0.1h6.8c1.7 0 3 1.5 3 3.1 0 1.8-1.4 3.1-3 3.1h-7c-0.1 0-0.1 0-0.1 0.1-0.3 5.5-2.9 10.2-6.8 13.4v5.1 14.5c0 9.4-29.9 8.9-29.9 0.3 0-1.2 0-22 0-28.1-0.7-2-1.2-4.1-1.2-6.3v-1.1c0-0.2 0-0.2-0.1-0.2-1.5-0.2-2.6-1-3.4-2.1-0.6-1-1.1-2.2-1.1-3.5-0.2-3.1 1.9-5.5 4.5-5.7z"/>
		<path id="Layer" class="s6" d="m307.8 582.9c0 0 0 0.1 0 0-0.1 0.1-0.3 0.1-0.3 0.1l-4.7-1.7c0 0-0.1 0-0.1-0.2l0.1-0.1c1.8-0.7 3.3-1.7 4.7-2.8 0 0 0 0 0.2 0 0.1 0 0.1 0.2 0.1 0.2z"/>
		<path id="Layer" class="s8" d="m299.4 559.7c-0.8 0-1.4-0.6-1.4-1.5 0-0.8 0.6-1.4 1.5-1.4 0.8 0 1.4 0.6 1.4 1.4 0 0.9-0.6 1.5-1.4 1.5z"/>
		<path id="Layer" class="s4" d="m300.4 569c0.8-5 11.6-3.5 11.6 0 0 3.9-12.2 3.9-11.6 0z"/>
		<path id="Layer" class="s11" d="m293.5 553.1c0 0.2 0 0.2 0.1 0.2h9.7c0.2 0 0.2 0 0.2-0.2v-3.5c0-0.2 0-0.2-0.2-0.2h-9.7c-0.1 0-0.1 0-0.1 0.2z"/>
		<path id="Layer" class="s11" d="m309.4 553.1c0 0.2 0 0.2 0.2 0.2h9.7c0.1 0 0.1 0 0.1-0.2v-3.5c0-0.2 0-0.2-0.1-0.2h-9.7c-0.2 0-0.2 0-0.2 0.2z"/>
		<path id="Layer" class="s10" d="m300.6 568.7c4.8 1.3 7.7 1.3 11.4 0"/>
		<path id="Layer" class="s8" d="m312.3 558.3c0-0.8 0.7-1.5 1.5-1.5 0.8 0 1.4 0.7 1.4 1.5q0 0.2 0 0.4l-0.1 0.2h-2.5c0 0-0.1 0-0.1-0.2-0.2-0.1-0.2-0.3-0.2-0.4z"/>
		<path id="Layer" class="s3" d="m298.8 564c-2.9 0-5.3-2.8-5.3-6.4 0-3.6 2.4-6.4 5.3-6.4 2.9 0 5.3 2.8 5.3 6.4 0 3.6-2.4 6.4-5.3 6.4z"/>
		<path id="Layer" class="s12" d="m278.8 557.5l-0.1-1.5-0.3-2.9c-0.4-1.3-1.5-1.9-2.8-1.6-0.8 0.1-1.6 0.6-2.6 1.8h-0.1l-0.2-0.2c0.3-13.5 2.9-26.4 21.3-26.4 24.1 0 21.6 22.5 21.2 24.3 0 0 0 0.2-0.1 0.2l-0.8 0.1h-0.2c0 0 0 0 0-0.1v-1.3-0.2c-5-3.8-7.7-8.5-8.4-9.8l-0.1-0.2c0 0-0.2 0-0.2 0.2-5 10.8-21.6 12.1-23.3 12.1 0 0-0.2 0-0.2 0.1l-0.5 3.3-0.3 2.4c0 0 0 0.1-0.2 0.1h-1.9c0 0-0.2 0-0.2-0.1z"/>
		<path id="Layer" class="s3" d="m304.1 558.7h5.6l-0.1-1.1c0-3.5 2.4-6.4 5.3-6.4 2.9 0 5.3 2.9 5.3 6.4v0.6"/>
		<path id="Layer" class="s5" d="m298.5 653.4c0 0 48.1 26.1 85.5 52.8 1.4 1.2 2.9 2.1 4.3 3.2 3.1 2.3 6.1 4.7 9.2 7l27.7 11.4c1.1 0.5 2.1 1.4 2.6 2.6l4.8 11.7c0.2 0.5 0.3 0.8 0.3 1.3 0 2.9 0 10 0 14.5 0 3.1-4.5 3.4-4.6 0.8-1.7 2.4-4.7 0.3-5-3.2-0.7 2.1-3.3 2.1-4.2-1.3l-2.8-10.3c-0.3-1-0.8-1.9-1.7-2.4l-4.5-3.1c-12.6 2.6-22.1-9.6-22.1-9.6-2.6-1.3-5.5-2.4-8.2-3.6-1.5-0.6-2.9-1.4-4.4-2.1-41.8-18.2-89.8-33.9-89.8-33.9z"/>
		<path id="Layer" class="s3" d="m416.8 732.3l5.5 9.7 1 13.3"/>
		<path id="Layer" class="s3" d="m428.3 758.7l-1.2-17.2-4.5-10.2"/>
		<path id="Layer" class="s3" d="m410.1 738.4l-5-3"/>
		<path id="Layer" class="s13" d="m388.3 709.4c-1.6-1.4-2.6-2.2-4.3-3.2l-8.6 16.8c1.6 0.9 2.8 1.4 4.4 2.1z"/>
		<path id="Layer" class="s13" d="m387.2 720.5l1.3-2.7c1.3-2.6 0.1-5.6-2.4-6.9l-2.8-1.3c-2.5-1.3-5.6-0.2-6.9 2.4l-1.3 2.8c-1.3 2.5-0.1 5.6 2.4 6.9l2.8 1.3c2.6 1.1 5.6 0.1 6.9-2.5z"/>
		<path id="Layer" class="s3" d="m302.5 1027.8c0-1.3-0.5-2.9-0.6-4.4-0.2-1.4-1.6-2.2-3.1-1.9-1.9 0.6-4 1-6.1 1"/>
		<path id="Layer" class="s13" d="m362.2 1027.3c0 0-0.1-0.2 0 0l-72.1-0.2c0 0-0.2 0-0.2 0.2v8.7c0 0 0 0.1 0.2 0.1h72c0 0 0.1 0 0.1-0.1z"/>
		<path id="Layer" class="s13" d="m304.3 1027.3c0 0-0.2-0.2 0 0l-72.2-0.2c0 0-0.1 0-0.1 0.2v8.7c0 0 0 0.1 0.1 0.1h72c0 0 0.2 0 0.2-0.1z"/>
		<path id="Layer" class="s3" d="m431.1 596.3l-9.3 9.1"/>
		<path id="Layer" class="s3" d="m422 580.5l8.8 8.7"/>
		<path id="Layer" class="s3" d="m430.2 593h-12.1"/>
	</g>
	<g id="Layer">
		<path id="Layer" class="s5" d="m1018.2 361.1c5.7-22 23.3-39.7 44.8-45.4 2.4-0.5 2.4-3.8 0-4.3-21.5-5.7-38.6-21.9-44.8-42-0.5-2.3-3.9-2.3-4.3 0-5.8 20.1-22 36.8-45.3 42-2.4 0.5-2.4 3.8 0 4.3 21.9 6.2 39.1 24.4 45.3 45.3 0.4 2.4 3.8 2.4 4.3 0z"/>
	</g>
	<g id="Layer">
		<path id="Layer" class="s5" d="m410.5 468.5c5.8-21.9 23.4-39.6 44.9-45.3 2.4-0.5 2.4-3.8 0-4.3-21.5-5.7-38.7-21.9-44.9-42-0.4-2.3-3.8-2.3-4.3 0-5.7 20.1-21.9 36.8-45.3 42-2.4 0.5-2.4 3.8 0 4.3 22 6.2 39.1 24.3 45.3 45.3 0.5 2.4 3.9 2.4 4.3 0z"/>
	</g>
</svg>